<svg id="图层_1" data-name="图层 1" xmlns="http://www.w3.org/2000/svg" viewBox="0 0 231.1 64.5"><defs><style>.cls-1,.cls-6{fill:#946429;}.cls-2{fill:#603390;}.cls-3{fill:#007941;}.cls-4{fill:#0079ae;}.cls-5{fill:#dd2e26;}.cls-6{stroke:#946429;stroke-miterlimit:10;stroke-width:0.25px;}</style></defs><title>download</title><g id="图层_2" data-name="图层 2"><g id="图层_1-2" data-name="图层 1-2"><g id="TM"><path class="cls-1" d="M21.4,41H13.7v.5a6.52,6.52,0,0,1,2.6,1.4v4.2h0V48s-.5,1.4-3.1,1.7h-.8a9,9,0,0,1-7.2-3.2A10,10,0,0,1,3,39.8a8.59,8.59,0,0,1,2.5-6.6,9,9,0,0,1,6.6-2.3,7.78,7.78,0,0,1,1.6.2,9.55,9.55,0,0,1,3.7,2.4c.4.5.8,1,1.1,1.4.4.8.6,1.3.6,1.3l.5.1V33.5h0v-.3c-.1-.2-.3-.3-.4-.5a7.43,7.43,0,0,0-3.7-2.5,7.85,7.85,0,0,0-2.7-.6h-.3A15.34,15.34,0,0,0,5.7,31a10.34,10.34,0,0,0-4.2,3.8A10.42,10.42,0,0,0,0,40.4a10.87,10.87,0,0,0,1.4,5.4,9.58,9.58,0,0,0,4,3.7,12.37,12.37,0,0,0,5.2,1.3,16.74,16.74,0,0,0,5.6-.4c.3-.1.5-.1.6-.2a5,5,0,0,0,2.8-2.3v-.4h0V42.3a5.63,5.63,0,0,1,1.9-.9Zm8.1-7.3c-6.2,16-8.8,15.8-8.8,15.8v.6h4v-.6c-1.2,0-.4-1.7-.4-1.7.4-.7.8-1.5,1.3-2.3h6.6c.6,1.3,1.1,2.2,1.1,2.2a1.24,1.24,0,0,1-.22,1.74L33,49.5v.6h5.7v-.6C35.3,48.9,29.5,33.7,29.5,33.7ZM26.1,44.5c1.4-2.9,2.7-5.9,2.7-5.9.3.8,1.7,3.6,2.9,5.9ZM61.5,33.7c-6.2,16-8.8,15.8-8.8,15.8v.6h4v-.6c-1.2,0-.4-1.7-.4-1.7.4-.7.8-1.5,1.3-2.3h6.6c.6,1.3,1.1,2.2,1.1,2.2a1.24,1.24,0,0,1-.22,1.74L65,49.5v.6h5.7v-.6C67.4,48.9,61.5,33.7,61.5,33.7ZM58.2,44.5c1.4-2.9,2.7-5.9,2.7-5.9.3.8,1.7,3.6,2.9,5.9Zm22.5-2.9c2.2-3,4.5-5.9,4.5-5.9a3.37,3.37,0,0,1,2.9-1.3v-.7H82.4v.7c1.7.3.6,1.8.6,1.8l-1.5,2.3c-.4.6-.9,1.3-1.4,2-1.4-2.3-2.4-4.2-2.4-4.2-1.2-1.7.5-2,.5-2v-.7H71.7v.7a4,4,0,0,1,2.5,1.3c.5.5,2.7,3.6,4.7,6.5-2.4,3.1-4.7,5.9-4.7,5.9a4.62,4.62,0,0,1-2.6,1.3v.6h5.2v-.6c-1.3-.3-.5-1.8-.5-1.8.3-.4,1.7-2.2,3.3-4.4,1.6,2.4,2.9,4.4,2.9,4.4.7,1.8-.9,1.8-.9,1.8v.6h7.1v-.6C86.4,49.5,83.1,45.3,80.7,41.6ZM48.6,49H46.3a2.33,2.33,0,0,1-2-1.3V36c0-1.5,1.6-1.6,1.6-1.6v-.7H40v.7c1.9.4,1.7,1.6,1.7,1.6V47.7A1.88,1.88,0,0,1,40,49.5v.6H51.3c.3-.6,1.2-3.3,1.2-3.3C51.8,48.4,48.6,49,48.6,49Zm57.8-18.9s-5.3-1.7-9.6,7.6c0,0-4-9.9-10.9-7.2,0,0,6.3-1,8.9,9.4,0,0,.4,6.8,0,7.9,0,0,.1,1.2-2.3,1.8v.6h7.6v-.6s-2-.2-2.1-1.8c0,0-.5-6.1,0-7.9C98,39.8,98.9,31.4,106.4,30.1Zm-4.8,4.2h1.1V37h.8V34.3h1.1v-.6h-3.1v.6Zm6.1-.5L107,36l-.7-2.2h-1.2v3.3h.7V34.5l.8,2.6h.8l.8-2.6v2.6h.7V33.8Z"/></g><g id="U"><path class="cls-1" d="M32.3,63.3V59.1a.89.89,0,0,1,.6-.8V58H31.4l-2.3,4.9-2.2-5H25.2v.3a.86.86,0,0,1,.5.8v4.2c0,.8-.5.8-.7.8v.3h1.7V64a1.09,1.09,0,0,1-.4-.8V58.7l2.3,5.5h.5l2.3-5.5v4.5a.88.88,0,0,1-.4.8v.3h2.2V64a.76.76,0,0,1-.89-.58S32.3,63.34,32.3,63.3Zm9.6-5.4c-2.4,6.3-3.4,6.3-3.4,6.3v.2h1.6v-.2c-.5,0-.2-.7-.2-.7.2-.3.3-.6.5-.9H43a3.64,3.64,0,0,1,.4.9c.3.5-.1.7-.1.7v.2h2.2v-.2C44.2,63.9,41.9,57.9,41.9,57.9Zm-1.3,4.3c.6-1.1,1.1-2.3,1.1-2.3.1.3.7,1.4,1.1,2.3Zm25.2-4.3c-2.5,6.3-3.5,6.3-3.5,6.3v.2h1.6v-.2c-.5,0-.2-.7-.2-.7.2-.3.3-.6.5-.9h2.6a3.64,3.64,0,0,1,.4.9c.3.5-.1.7-.1.7v.2h2.2v-.2C68.1,63.9,65.8,57.9,65.8,57.9Zm-1.4,4.3c.6-1.1,1.1-2.3,1.1-2.3.1.3.7,1.4,1.1,2.3ZM54,63.9a2.38,2.38,0,0,1-1.5-.9,2.87,2.87,0,0,1-.7-2,2.8,2.8,0,0,1,.8-2,2.72,2.72,0,0,1,2-.7.63.63,0,0,1,.4.1,3.19,3.19,0,0,1,1.3.8c.1.1.2.3.3.4l.2.4H57v-.9A2.33,2.33,0,0,0,55,58h-.2a4.22,4.22,0,0,0-2.1.4,3,3,0,0,0-1.3,1.2,3.3,3.3,0,0,0-.5,1.7,3.36,3.36,0,0,0,.4,1.7,2.56,2.56,0,0,0,1.2,1.1,5.38,5.38,0,0,0,1.9.4h.8a1.23,1.23,0,0,0,.6-.1h.1c.1,0,.2,0,.2-.1a1.69,1.69,0,0,0,1.1-.8v-.8h-.3C56.5,64,54.7,64,54,63.9Zm25.7-6v.3s.6.3.6.8v2.9a3.14,3.14,0,0,1-.1,1.1,2.17,2.17,0,0,1-.4.6,2,2,0,0,1-1.5.6,2,2,0,0,1-1.5-.5.83.83,0,0,1-.3-.6c0-.2-.1-.6-.1-1.3V59.1c0-.5.6-.8.6-.8V58H74.7v.2s.7.3.7.8v2.8c0,1.7.9,2.5,2.8,2.5a2.83,2.83,0,0,0,2.1-.7,2.3,2.3,0,0,0,.5-.8,4.37,4.37,0,0,0,.1-1.3V58.9c0-.6.7-.8.7-.8v-.3Z"/></g><g id="形状_44_拷贝" data-name="形状 44 拷贝"><path class="cls-2" d="M46.4,15.1a4.53,4.53,0,0,0-1.8.5s5.5.1,7.9,4.7c0,0,.2-.1.2-.8C52.7,19.5,51.8,15.4,46.4,15.1Zm13.3,0c-5.4.2-6.2,4.4-6.2,4.4-.1.7.2.8.2.8,2.4-4.6,7.9-4.7,7.9-4.7A5.05,5.05,0,0,0,59.7,15.1Z"/></g><g id="形状_14_拷贝" data-name="形状 14 拷贝"><path class="cls-3" d="M45.1,19.3c-2.7.7-2.8,1.4-2.8,1.4,7.6-1.7,10.8,4.2,10.8,4.2C53,19,45.1,19.3,45.1,19.3Zm16,0s-7.9-.4-8,5.6c0,0,3.2-5.9,10.8-4.2C63.9,20.7,63.8,20,61.1,19.3Z"/></g><g id="形状_15_拷贝" data-name="形状 15 拷贝"><path class="cls-4" d="M43.2,24A10.77,10.77,0,0,0,38,26.8c10.3-3.8,15.1,2.8,15.1,2.8C51.5,22.8,43.2,24,43.2,24ZM63,24s-8.3-1.2-9.9,5.6c0,0,4.8-6.6,15.1-2.8A13,13,0,0,0,63,24Z"/></g><g id="形状_43_拷贝" data-name="形状 43 拷贝"><path class="cls-5" d="M48.3,11.3c-.9-.1-1,.2-1,.2,2.8.7,4.5,4.5,4.5,4.5.5.1.5-.5.5-.5C51.8,12.2,48.3,11.3,48.3,11.3Zm9.6,0s-3.5,1-4,4.2c0,0,0,.6.5.5,0,0,1.8-3.9,4.5-4.5C58.9,11.4,58.7,11.2,57.9,11.3Z"/></g><g id="形状_42_拷贝" data-name="形状 42 拷贝"><path class="cls-1" d="M53.1,0c-.4,0-.7,2.7-.7,6.1s.3,6.1.7,6.1.7-2.7.7-6.1S53.5,0,53.1,0ZM40.7,15.5c-5,12.2-9.6,12.4-9.6,12.4-.4.4.3.3.3.3,6.4.3,10.5-10.1,10.5-10.1C46.4,6.2,51.1,7.5,51.1,7.5A.41.41,0,0,0,51.41,7V7C44.2,6,40.7,15.5,40.7,15.5ZM75,27.9s-4.5-.3-9.6-12.4c0,0-3.4-9.5-10.7-8.4a.39.39,0,0,0,.28.49h0s4.7-1.3,9.2,10.6c0,0,4.1,10.4,10.4,10.1C74.6,28.2,75.4,28.3,75,27.9Z"/></g><g id="形状_31" data-name="形状 31"><path class="cls-1" d="M133.4,20a6.2,6.2,0,0,1,1.2-1.2s-2-2.4-4.2-2.1C130.4,16.7,133.2,18.1,133.4,20Zm-3,2.4s2.8,1.4,3,3.3a6.2,6.2,0,0,1,1.2-1.2S132.6,22.1,130.4,22.4Zm-.3,9.5a7.22,7.22,0,0,1,1.2,2.4c3.2-4.4,2.1-7.8,2.1-7.8a7,7,0,0,1-3.3,5.4Zm18.3-3.6h-6.1a3.64,3.64,0,0,0,.4-.9h-2.4a3.09,3.09,0,0,1-.2.9h-5.2v1.2h4.7a12,12,0,0,1-5,4.8,9.66,9.66,0,0,0,7-4.8h6.8ZM146,22.4h-3.9V19.7h-1.2v2.7h-3.6v1.2h3.6v2.7h1.2V23.6H146Zm-6.9-2.5-.7.7c.8.3,1.3,1.6,1.3,1.6A2.31,2.31,0,0,0,139.1,19.9Zm5.4.6-.7-.7a2.29,2.29,0,0,0-.7,2.3C143.2,22.2,143.7,20.8,144.5,20.5Zm-4.2,3.4h-.9a5.65,5.65,0,0,1-1.2,2.7C140.1,26.6,140.3,23.9,140.3,23.9Zm3.6,2.7h.9s-.2-2.7-2.1-2.7a5.65,5.65,0,0,1,1.2,2.7Zm-7.2-7.8h9.9v8.7h1.2V17.6h-6.3L143,16h-2.1l-1.5,1.6h-3.9v9.9h1.2V18.8Zm5.4,10.7v.6s1.3,2.8,5.7,4.2c0,0,.4-1.5.9-1.8C148.7,32.5,142.5,31,142.1,29.5Z"/></g><g id="矩形_3_拷贝_10" data-name="矩形 3 拷贝 10"><path class="cls-1" d="M158.6,34.1h1.5V24.2h5.4V16.1h-6.9ZM160.1,17H164v2.4h-3.9Zm0,3.3H164v3h-3.9Zm15,9.9V16.1h-6.9v8.1h5.4v6.3c0,2.9-3.3,2.4-3.3,2.4l1.5,1.2C175.7,34.1,175.1,30.2,175.1,30.2Zm-1.5-6.9h-3.9v-3h3.9Zm0-3.9h-3.9V17h3.9Z"/></g><g id="形状_40" data-name="形状 40"><path class="cls-1" d="M190.3,17.5a5.72,5.72,0,0,1,1.5,3H193S193.3,18.9,190.3,17.5Zm-1.8,12.9s-1-2.7-3-3.6a6.65,6.65,0,0,1,1.2,3.6Zm1.8-7.8h1.5v-.9h-4.6a15.57,15.57,0,0,0,3.7-5.5h-2.7a9.89,9.89,0,0,1-3.3,7.3,18.17,18.17,0,0,0,2.1-1.6v.7h1.8v2.1h-3v.9h3v6.3c-1.6.4-3,.6-3,.6a10,10,0,0,1,1.8,1.5,11.68,11.68,0,0,0,2.5-1.8h.2v-.1c.8-.7,1.5-1.4,1.5-1.4a10.23,10.23,0,0,1-1.5.7V29.5a4,4,0,0,0,1.8-3,3.2,3.2,0,0,1-1.8,1.7V25.6h2.4v-.9h-2.4Zm5.1,9.3V24.4h6.3V16.6h-7.8V32.8c.7,1.8,1.5,1.2,1.5,1.2a21.52,21.52,0,0,0,2.7-2.7V31a3.32,3.32,0,0,1-2.7.9Zm0-14.4h4.8v2.7h-4.8Zm0,3.6h4.8v2.4h-4.8Zm1.5,3.6s1.7,7.7,6,9a2.72,2.72,0,0,0,.9-1.8s-2,.3-6.9-7.2Zm2.7,3.6c2.2,0,3.6-2.4,3.6-2.4h-2.1A3.58,3.58,0,0,1,199.6,28.3Z"/></g><g id="矩形_3_拷贝_23" data-name="矩形 3 拷贝 23"><path class="cls-1" d="M212.8,16.6s2.8,1.4,3,3.3a6.2,6.2,0,0,1,1.2-1.2S215,16.3,212.8,16.6Zm0,5.7s2.8,1.4,3,3.3a6.2,6.2,0,0,1,1.2-1.2S215,22,212.8,22.3Zm-.3,9.6a7.22,7.22,0,0,1,1.2,2.4c3.2-4.4,2.1-7.8,2.1-7.8A7,7,0,0,1,212.5,31.9ZM217.6,16v1.2h10.5v12s-.7,3.5-5.4,3.6c0,0,1.5,0,1.8,1.2,0,0,5.1-1.4,5.1-4.5V17.2h1.5V16Zm7.8,12.3V19.9h-6.3v8.4Zm-4.8-7.2h3.3v6h-3.3Z"/></g><rect class="cls-1" x="118.6" y="16.4" width="0.8" height="40.3"/><path class="cls-1" d="M139.34,42.46V43.7h-5.92l-.4,4.07h.06a3.1,3.1,0,0,1,1.31-.92,3.92,3.92,0,0,1,1.55-.29,3.71,3.71,0,0,1,2.8,1.09,4.23,4.23,0,0,1,1.09,3.07,3.87,3.87,0,0,1-1.31,3,4.69,4.69,0,0,1-5.76.24,3.43,3.43,0,0,1-1.39-2.63h1.37a2.35,2.35,0,0,0,.92,1.76,3,3,0,0,0,1.85.55,2.85,2.85,0,0,0,2.11-.82,2.78,2.78,0,0,0,.83-2.09,3.07,3.07,0,0,0-.78-2.24,2.64,2.64,0,0,0-2.07-.8,3.22,3.22,0,0,0-1.55.37,2.48,2.48,0,0,0-1.05,1.1h-1.32l.64-6.7Z"/><path class="cls-1" d="M154.61,42.46v1.21H147.4v4.06h6.8v1.21h-6.8v4.45h7.49V54.6H146V42.46Z"/><path class="cls-1" d="M169.51,42.46v1.21h-7.2v4.06h6.8v1.21h-6.8v4.45h7.49V54.6h-8.89V42.46Z"/><path class="cls-1" d="M177.57,52.88a1.05,1.05,0,0,1-.73,1.79.91.91,0,0,1-.73-.31,1,1,0,0,1,0-1.48,1,1,0,0,1,.73-.3A1,1,0,0,1,177.57,52.88Z"/></g></g><path class="cls-6" d="M189.2,52.39c.07.17.23.64.38,1.12.16-.5.26-.79.37-1.12l3-8.21a6.76,6.76,0,0,0,.46-1.64H195a12.28,12.28,0,0,0-.81,1.86l-3.39,8.84a10.2,10.2,0,0,0-.49,1.49h-1.54a8.84,8.84,0,0,0-.51-1.49l-3.4-8.84a14.68,14.68,0,0,0-.81-1.86h1.64a10.59,10.59,0,0,0,.46,1.64Z"/><path class="cls-6" d="M208.14,42.54a10.7,10.7,0,0,0-.14,1.8v8.59a10.61,10.61,0,0,0,.14,1.8h-1.5a10.4,10.4,0,0,0,.12-1.8V44.34a10.33,10.33,0,0,0-.12-1.8Z"/><path class="cls-6" d="M220.75,54.73a9.6,9.6,0,0,0,.13-1.8V44.32a11.43,11.43,0,0,0-.13-1.83c.57,0,1,0,1.75,0h3.23c2.45,0,3.83,1.27,3.83,3.5s-1.43,3.72-3.91,3.72h-3.53v3.16a10.45,10.45,0,0,0,.12,1.81Zm4.9-6.08a2.35,2.35,0,0,0,2.64-2.55c0-1.6-.92-2.45-2.64-2.45h-3.53v5Z"/></svg>